<svg xmlns="http://www.w3.org/2000/svg" xmlns:xlink="http://www.w3.org/1999/xlink" width="68.58" height="92.451" viewBox="0 0 68.58 92.451"><defs><linearGradient id="a" x1="0.5" x2="0.5" y2="1" gradientUnits="objectBoundingBox"><stop offset="0" stop-color="#ffbb3b"/><stop offset="1" stop-color="#ffa90a"/></linearGradient></defs><g transform="translate(-153.17 -121.628)"><path d="M23.789,36.569H0V0H66.254a27.138,27.138,0,0,1-4.208,4.2A33.515,33.515,0,0,1,50.4,10.085a52.771,52.771,0,0,1-14.715,1.961H23.789V36.569Z" transform="translate(155.495 177.51)" fill="url(#a)"/><path d="M5533.787-150.922h-16.326a75.05,75.05,0,0,1,23.875-36.568h34.918a27.278,27.278,0,0,1-4.208,4.2,33.53,33.53,0,0,1-11.65,5.884,52.725,52.725,0,0,1-14.714,1.962h-11.895v24.521h0Z" transform="translate(-5354.505 365)" fill="rgba(0,0,0,0.24)"/><path d="M13.148,0A13.148,13.148,0,1,0,26.3,13.148,13.147,13.147,0,0,0,13.148,0Zm6.291,14.2L11.6,19.6a1.281,1.281,0,0,1-2.008-1.055V7.752A1.281,1.281,0,0,1,11.6,6.7l7.842,5.4a1.281,1.281,0,0,1,0,2.111Z" transform="translate(173.2 139.816)" fill="#ffbb3b"/><path d="M-4965.466,28.96h39.124s18.65-.451,22.474,7.911" transform="translate(5120.964 94.68)" fill="none" stroke="#ffbb3b" stroke-linecap="square" stroke-width="4"/><path d="M-4888.493-54.685s-7.046.1-7.336,5.582c.336-.163,59.478,0,59.478,0v-1.361a26.518,26.518,0,0,0-3.322-1.664c-1.013-.322-7.522-1.029-7.522-1.029l-13.3-.683Z" transform="translate(5049 177)" fill="none"/></g></svg>